<svg width="815" height="545" viewBox="0 0 815 545" fill="none" xmlns="http://www.w3.org/2000/svg">
<g opacity="0.05">
<path fill-rule="evenodd" clip-rule="evenodd" d="M235.605 346.175C227.456 354.847 235.593 372.076 205.971 387.925C143.997 420.922 133.298 479.793 81.0342 500.431C80.4212 500.576 152.437 492.689 195.777 442.607C213.853 421.59 225.05 392.155 230.24 375.585C231.993 369.7 237.04 344.441 235.605 346.175Z" fill="#3AC24A"/>
<path fill-rule="evenodd" clip-rule="evenodd" d="M257.835 335.847C247.416 330.099 232.755 342.322 209.951 317.412C162.516 265.514 102.912 270.064 69.8376 224.353C69.4846 223.861 95.2305 291.483 154.582 320.978C179.469 333.34 210.419 336.911 227.972 337.775C233.933 338.092 259.701 336.788 257.835 335.847Z" fill="#3AC24A"/>
<path fill-rule="evenodd" clip-rule="evenodd" d="M257.01 273.535C229.499 200.807 147.859 190.096 114.958 144.564C114.747 144.199 128.571 194.063 181.951 229.372C217.888 253.035 206.977 286.342 244.454 298.326C256.907 302.413 277.04 294.966 302.715 296.152C317.261 296.873 324.073 295.167 327.571 294.957C339.937 294.431 264.015 291.696 257.01 273.535Z" fill="#3AC24A"/>
<path fill-rule="evenodd" clip-rule="evenodd" d="M408.849 351.819C345.915 397.621 357.366 479.065 321.977 523.024C321.821 523.114 366.14 496.552 386.021 435.86C399.409 394.788 434.427 396.845 436.165 357.417C436.892 344.329 424.283 326.828 418.623 301.835C415.598 287.432 411.997 281.436 410.875 278.047C407.054 266.123 424.409 340.19 408.849 351.819Z" fill="#3AC24A"/>
<path fill-rule="evenodd" clip-rule="evenodd" d="M393.444 284.143C385.611 271.542 367.488 276.924 355.412 235.03C329.762 146.957 272.077 117.335 258.004 44.8528C257.859 44.2408 256.937 137.77 301.749 206.706C320.534 235.746 348.493 257.889 364.499 268.974C370.057 272.934 394.83 286.545 393.444 284.143Z" fill="#3AC24A"/>
<path fill-rule="evenodd" clip-rule="evenodd" d="M359.782 286.245C351.633 294.918 359.77 312.146 330.149 327.996C268.175 360.992 181.506 488.783 216.537 532.459C217.048 532.86 222.423 453.675 319.924 382.625C342.349 366.128 349.318 332.382 354.387 315.602C356.014 309.86 361.27 284.481 359.782 286.245Z" fill="#3AC24A"/>
<path fill-rule="evenodd" clip-rule="evenodd" d="M189.331 368.506C177.682 367.018 167.289 373.853 137.113 359.325C73.4524 329.116 48.1704 382.624 0.525569 352.426C0.135869 352.233 22.1908 388.505 88.0654 393.49C115.965 395.759 146.061 387.362 162.455 381.517C168.092 379.585 191.582 368.668 189.331 368.506Z" fill="#3AC24A"/>
<path fill-rule="evenodd" clip-rule="evenodd" d="M521.797 278.951C508.336 266.606 491.15 275.902 460.531 232.394C396.179 141.188 380.421 200.823 335.408 38.1008C335.264 37.4878 314.52 144.55 391.534 211.391C423.797 239.541 462.914 258.583 484.729 267.915C492.326 271.186 524.343 281.31 521.797 278.951Z" fill="#3AC24A"/>
<path fill-rule="evenodd" clip-rule="evenodd" d="M581.342 298.172C574.506 281.027 555.062 281.951 546.222 229.627C527.966 119.396 487.812 166.315 517.828 0.439902C517.966 -0.405098 453.057 87.1889 493.207 180.603C510.162 220.097 537.112 254.238 552.602 272.025C558.051 278.206 582.59 301.419 581.342 298.172Z" fill="#3AC24A"/>
<path fill-rule="evenodd" clip-rule="evenodd" d="M542.712 290.821C536.693 304.389 516.793 305.368 510.336 346.267C496.449 431.69 440.68 476.278 436.326 544.573C436.314 545.276 421.838 462.933 458.637 388.019C473.952 356.554 499.907 328.204 514.832 313.183C520.148 308.164 543.912 288.318 542.712 290.821Z" fill="#3AC24A"/>
<path fill-rule="evenodd" clip-rule="evenodd" d="M608 311.669C611.924 297.849 605.365 287.574 630.216 249.838C682.467 170.944 617.659 153.579 666.185 92.707C666.743 92.107 614.983 125.192 595.18 201.571C586.934 233.827 591.825 266.294 596.008 283.787C597.569 289.987 607.047 314.238 608 311.669Z" fill="#3AC24A"/>
<path fill-rule="evenodd" clip-rule="evenodd" d="M638.803 333.074C649.948 328.867 656.122 318.341 689.579 317.333C760.08 315.262 757.992 256.185 814.356 261.094C814.811 261.039 778.673 238.955 717.556 264.635C691.919 275.33 668.886 296.563 656.866 309.141C652.564 313.505 636.751 333.98 638.803 333.074Z" fill="#3AC24A"/>
<path fill-rule="evenodd" clip-rule="evenodd" d="M638.699 496.019C640.823 487.762 647.881 482.504 645.935 458.638C642.099 408.228 684.301 404.885 676.438 365.223C676.474 364.924 695.072 389.06 681.599 434.567C675.837 453.764 662.444 471.799 654.313 481.227C651.517 484.582 638.302 497.502 638.699 496.019Z" fill="#3AC24A"/>
<path fill-rule="evenodd" clip-rule="evenodd" d="M770.257 491.553C733.835 476.454 681.861 204.497 340.338 287.169C272.458 303.667 213.576 382.77 143.529 369.473C146.165 383.683 184.236 376.32 229.629 354.15C263.098 337.611 298.438 309.481 338.652 294.616C385.077 277.489 435.439 281.407 465.254 280.481C495.212 279.683 524.077 285.431 548.484 292.501C594.604 305.829 601.067 308.223 655.937 352.139C701.907 389.082 761.536 502.852 761.536 502.852C771.8 487.112 773.396 493.012 770.257 491.553Z" fill="#14771E"/>
</g>
</svg>
