<svg width="162" height="48" viewBox="0 0 162 48" fill="none" xmlns="http://www.w3.org/2000/svg">
<path d="M149.099 3.39297e-05H12.908C12.4115 3.39297e-05 11.921 3.39298e-05 11.4259 0.00243393C11.0115 0.00483393 10.6003 0.0118059 10.1819 0.0176739C9.2728 0.0271561 8.36589 0.0980455 7.46899 0.229726C6.57336 0.364273 5.70578 0.617933 4.8956 0.982126C4.08641 1.3494 3.34704 1.82664 2.70429 2.39652C2.05817 2.9648 1.51958 3.62165 1.10923 4.34183C0.697744 5.06056 0.412419 5.83076 0.263109 6.62581C0.112379 7.41986 0.0312704 8.22306 0.0205099 9.02821C0.00794675 9.39613 0.00662003 9.76527 0 10.1332V37.8704C0.00662003 38.243 0.00794675 38.6039 0.0205099 38.9766C0.0312737 39.7817 0.112383 40.5849 0.263109 41.3789C0.412007 42.1744 0.697348 42.9451 1.10923 43.6641C1.51939 44.3819 2.05806 45.0361 2.70429 45.6012C3.3446 46.1737 4.08445 46.6512 4.8956 47.0157C5.70577 47.3808 6.57326 47.636 7.46899 47.7726C8.36604 47.9033 9.27286 47.9742 10.1819 47.9848C10.6003 47.993 11.0115 47.9976 11.4259 47.9976C11.921 48 12.4115 48 12.908 48H149.099C149.586 48 150.08 48 150.567 47.9976C150.979 47.9976 151.402 47.993 151.815 47.9848C152.722 47.9747 153.627 47.9038 154.522 47.7726C155.421 47.6351 156.292 47.3799 157.106 47.0157C157.916 46.651 158.655 46.1735 159.295 45.6012C159.94 45.0339 160.48 44.3802 160.895 43.6641C161.304 42.9445 161.586 42.174 161.733 41.3789C161.884 40.5848 161.968 39.7818 161.984 38.9766C161.989 38.6039 161.989 38.243 161.989 37.8704C162 37.4344 162 37.0008 162 36.5578V11.4434C162 11.0039 162 10.568 161.989 10.1332C161.989 9.76527 161.989 9.39613 161.984 9.02816C161.968 8.22294 161.884 7.41992 161.733 6.62576C161.586 5.83117 161.303 5.06104 160.895 4.34178C160.059 2.89827 158.734 1.72326 157.106 0.982018C156.292 0.618715 155.421 0.365122 154.522 0.229618C153.627 0.0973573 152.722 0.0264432 151.815 0.0175059C151.402 0.0116499 150.979 0.00461793 150.567 0.00227793C150.08 -0.00012207 149.586 -0.00012207 149.099 -0.00012207V3.39297e-05Z" fill="#A6A6A6"/>
<path d="M11.3162 46.9537C10.903 46.9537 10.4998 46.949 10.0899 46.9408C9.24064 46.931 8.3934 46.8656 7.55508 46.7451C6.7734 46.6259 6.01615 46.4043 5.30833 46.0874C4.607 45.7732 3.96733 45.3613 3.41382 44.8673C2.8523 44.3791 2.38481 43.8129 2.02988 43.1911C1.67103 42.5653 1.42269 41.8945 1.2935 41.2021C1.15399 40.458 1.07851 39.7057 1.06771 38.9516C1.05911 38.6985 1.04785 37.8556 1.04785 37.8556V10.1292C1.04785 10.1292 1.05984 9.29931 1.06777 9.0555C1.07811 8.30256 1.15316 7.55141 1.29225 6.80855C1.42168 6.11423 1.67022 5.44148 2.02925 4.81361C2.38288 4.19226 2.84778 3.62564 3.40591 3.13572C3.96342 2.64115 4.60514 2.22704 5.30767 1.9085C6.01386 1.59269 6.76967 1.37262 7.54978 1.25564C8.39085 1.13389 9.24104 1.06807 10.0932 1.05872L11.3169 1.04407H150.684L151.922 1.05931C152.767 1.06819 153.609 1.13343 154.443 1.25446C155.231 1.37291 155.994 1.59452 156.709 1.91202C158.116 2.55397 159.261 3.56959 159.984 4.81654C160.337 5.44008 160.582 6.10733 160.709 6.79566C160.85 7.54462 160.929 8.30167 160.945 9.06078C160.949 9.40069 160.949 9.76581 160.949 10.1292C160.96 10.5793 160.96 11.0077 160.96 11.4396V36.5592C160.96 36.9953 160.96 37.4208 160.949 37.8498C160.949 38.2401 160.949 38.5976 160.944 38.9656C160.928 39.7112 160.851 40.4547 160.712 41.1903C160.586 41.8877 160.339 42.5638 159.98 43.1947C159.622 43.8097 159.158 44.371 158.602 44.8579C158.048 45.3545 157.408 45.7689 156.705 46.0852C155.992 46.4044 155.23 46.6269 154.443 46.7451C153.604 46.8662 152.757 46.9317 151.908 46.9408C151.511 46.949 151.095 46.9537 150.691 46.9537L149.221 46.9561L11.3162 46.9537Z" fill="black"/>
<path d="M39.3569 24.3609C39.3698 23.3593 39.6358 22.3773 40.1303 21.5061C40.6247 20.635 41.3314 19.903 42.1847 19.3784C41.6427 18.6042 40.9275 17.9671 40.0961 17.5177C39.2647 17.0682 38.34 16.8188 37.3954 16.7892C35.3803 16.5777 33.4267 17.995 32.3999 17.995C31.3531 17.995 29.7721 16.8102 28.0697 16.8452C26.9685 16.8808 25.8952 17.201 24.9546 17.7747C24.0139 18.3484 23.2379 19.1559 22.7022 20.1187C20.3814 24.1368 22.1125 30.0421 24.3356 33.29C25.4479 34.8804 26.7478 36.6569 28.4488 36.5939C30.1132 36.5249 30.7349 35.5326 32.744 35.5326C34.7346 35.5326 35.3178 36.5939 37.0532 36.5539C38.8393 36.5249 39.9646 34.9564 41.0379 33.3509C41.837 32.2177 42.452 30.9652 42.86 29.6399C41.8223 29.201 40.9368 28.4664 40.3139 27.5277C39.6909 26.5889 39.3581 25.4876 39.3569 24.3609Z" fill="white"/>
<path d="M36.079 14.6531C37.0528 13.484 37.5326 11.9814 37.4164 10.4644C35.9286 10.6206 34.5543 11.3317 33.5673 12.4559C33.0847 13.0051 32.7151 13.644 32.4796 14.3361C32.2441 15.0283 32.1474 15.76 32.1948 16.4896C32.939 16.4972 33.6752 16.3359 34.348 16.0178C35.0208 15.6997 35.6127 15.2331 36.079 14.6531Z" fill="white"/>
<path d="M60.3968 32.5675H54.7167L53.3526 36.5952H50.9468L56.3269 21.6936H58.8265L64.2065 36.5952H61.7597L60.3968 32.5675ZM55.305 30.7089H59.8074L57.5878 24.1721H57.5257L55.305 30.7089Z" fill="white"/>
<path d="M75.8258 31.1636C75.8258 34.5398 74.0188 36.7089 71.2918 36.7089C70.601 36.7451 69.914 36.5859 69.3095 36.2498C68.7049 35.9136 68.2073 35.414 67.8735 34.8081H67.8219V40.1894H65.5918V25.7308H67.7504V27.5378H67.7914C68.1406 26.9349 68.6467 26.4378 69.2558 26.0996C69.865 25.7614 70.5544 25.5947 71.2508 25.6171C74.0082 25.6171 75.8258 27.7968 75.8258 31.1636ZM73.5336 31.1636C73.5336 28.964 72.3969 27.5179 70.6625 27.5179C68.9586 27.5179 67.8125 28.9945 67.8125 31.1636C67.8125 33.3527 68.9586 34.8187 70.6625 34.8187C72.3969 34.8187 73.5336 33.3831 73.5336 31.1636Z" fill="white"/>
<path d="M87.7833 31.1636C87.7833 34.5398 85.9763 36.7089 83.2494 36.7089C82.5586 36.745 81.8716 36.5859 81.267 36.2498C80.6625 35.9136 80.1648 35.414 79.831 34.8081H79.7794V40.1894H77.5493V25.7308H79.7079V27.5378H79.7489C80.0981 26.9349 80.6041 26.4378 81.2133 26.0996C81.8225 25.7614 82.5119 25.5947 83.2083 25.6171C85.9658 25.6171 87.7833 27.7968 87.7833 31.1636ZM85.4911 31.1636C85.4911 28.964 84.3544 27.5179 82.62 27.5179C80.9161 27.5179 79.77 28.9945 79.77 31.1636C79.77 33.3527 80.9161 34.8187 82.62 34.8187C84.3544 34.8187 85.4912 33.3831 85.4912 31.1636H85.4911Z" fill="white"/>
<path d="M95.6867 32.4433C95.8519 33.921 97.2875 34.8913 99.2492 34.8913C101.129 34.8913 102.481 33.921 102.481 32.5886C102.481 31.4319 101.666 30.7394 99.7343 30.2647L97.8031 29.7995C95.0667 29.1386 93.7964 27.8589 93.7964 25.7823C93.7964 23.2112 96.0371 21.4452 99.2187 21.4452C102.367 21.4452 104.526 23.2112 104.599 25.7823H102.348C102.213 24.2952 100.984 23.3975 99.187 23.3975C97.3905 23.3975 96.1612 24.3057 96.1612 25.6276C96.1612 26.6811 96.9464 27.3011 98.8671 27.7756L100.509 28.1787C103.566 28.9018 104.837 30.13 104.837 32.3096C104.837 35.0975 102.616 36.8436 99.0839 36.8436C95.7792 36.8436 93.548 35.1385 93.4038 32.4432L95.6867 32.4433Z" fill="white"/>
<path d="M109.649 23.1597V25.7308H111.715V27.4968H109.649V33.4862C109.649 34.4167 110.063 34.8503 110.971 34.8503C111.217 34.846 111.461 34.8288 111.705 34.7987V36.5542C111.297 36.6305 110.882 36.665 110.466 36.6573C108.267 36.6573 107.409 35.8311 107.409 33.7241V27.4968H105.829V25.7308H107.409V23.1597H109.649Z" fill="white"/>
<path d="M112.912 31.1636C112.912 27.7452 114.925 25.5972 118.065 25.5972C121.215 25.5972 123.219 27.7452 123.219 31.1636C123.219 34.5913 121.225 36.73 118.065 36.73C114.905 36.73 112.912 34.5913 112.912 31.1636ZM120.946 31.1636C120.946 28.8187 119.872 27.4347 118.065 27.4347C116.258 27.4347 115.184 28.8292 115.184 31.1636C115.184 33.5179 116.258 34.8913 118.065 34.8913C119.872 34.8913 120.946 33.5179 120.946 31.1636H120.946Z" fill="white"/>
<path d="M125.057 25.7308H127.184V27.58H127.236C127.38 27.0025 127.718 26.4921 128.194 26.1346C128.67 25.7771 129.254 25.5944 129.849 25.6171C130.106 25.6162 130.362 25.6441 130.613 25.7003V27.7863C130.289 27.6871 129.95 27.6416 129.611 27.6515C129.287 27.6384 128.964 27.6955 128.664 27.8189C128.364 27.9424 128.095 28.1293 127.874 28.3668C127.653 28.6042 127.487 28.8867 127.385 29.1947C127.284 29.5027 127.251 29.829 127.287 30.1511V36.5953H125.057L125.057 25.7308Z" fill="white"/>
<path d="M140.895 33.4042C140.595 35.3765 138.674 36.73 136.217 36.73C133.056 36.73 131.095 34.6124 131.095 31.2151C131.095 27.8073 133.067 25.5972 136.123 25.5972C139.129 25.5972 141.019 27.662 141.019 30.9562V31.7202H133.346V31.855C133.31 32.2548 133.361 32.6576 133.493 33.0366C133.625 33.4156 133.836 33.7622 134.113 34.0532C134.389 34.3443 134.724 34.5732 135.096 34.7248C135.468 34.8763 135.867 34.9471 136.269 34.9323C136.796 34.9817 137.324 34.8596 137.776 34.5843C138.229 34.309 138.58 33.8951 138.778 33.4042L140.895 33.4042ZM133.356 30.1616H138.788C138.808 29.8021 138.754 29.4423 138.628 29.1049C138.502 28.7674 138.308 28.4596 138.058 28.2007C137.808 27.9417 137.507 27.7373 137.174 27.6003C136.841 27.4632 136.483 27.3965 136.123 27.4042C135.76 27.402 135.4 27.4718 135.064 27.6095C134.728 27.7472 134.423 27.9501 134.165 28.2064C133.908 28.4628 133.704 28.7676 133.565 29.1031C133.426 29.4387 133.356 29.7985 133.356 30.1616V30.1616Z" fill="white"/>
<path d="M55.0258 10.4772C55.4933 10.4437 55.9625 10.5143 56.3994 10.684C56.8363 10.8538 57.2302 11.1183 57.5525 11.4587C57.8748 11.799 58.1175 12.2067 58.2632 12.6522C58.4089 13.0977 58.4539 13.57 58.3949 14.035C58.3949 16.3225 57.1586 17.6374 55.0258 17.6374H52.4395V10.4772H55.0258ZM53.5516 16.6248H54.9016C55.2356 16.6448 55.57 16.59 55.8802 16.4645C56.1905 16.339 56.4688 16.1458 56.695 15.8991C56.9212 15.6525 57.0895 15.3585 57.1878 15.0385C57.286 14.7186 57.3117 14.3807 57.2629 14.0496C57.3081 13.7198 57.2799 13.3841 57.1801 13.0665C57.0804 12.7489 56.9116 12.4573 56.686 12.2126C56.4603 11.9679 56.1833 11.7761 55.8748 11.651C55.5663 11.5259 55.2339 11.4706 54.9016 11.4891H53.5516V16.6248Z" fill="white"/>
<path d="M59.6512 14.9332C59.6172 14.5781 59.6579 14.2198 59.7705 13.8813C59.8831 13.5428 60.0652 13.2316 60.3051 12.9676C60.5451 12.7037 60.8375 12.4927 61.1637 12.3484C61.49 12.2041 61.8427 12.1295 62.1995 12.1295C62.5562 12.1295 62.909 12.2041 63.2352 12.3484C63.5614 12.4927 63.8539 12.7037 64.0938 12.9676C64.3337 13.2316 64.5158 13.5428 64.6284 13.8813C64.7411 14.2198 64.7817 14.5781 64.7477 14.9332C64.7823 15.2886 64.7422 15.6474 64.6299 15.9864C64.5176 16.3255 64.3356 16.6373 64.0956 16.9018C63.8556 17.1663 63.5629 17.3776 63.2364 17.5223C62.9098 17.6669 62.5566 17.7416 62.1995 17.7416C61.8423 17.7416 61.4891 17.6669 61.1626 17.5223C60.836 17.3776 60.5433 17.1663 60.3033 16.9018C60.0634 16.6373 59.8814 16.3255 59.769 15.9864C59.6567 15.6474 59.6166 15.2886 59.6512 14.9332ZM63.6508 14.9332C63.6508 13.7619 63.1246 13.0769 62.2012 13.0769C61.2743 13.0769 60.7528 13.7619 60.7528 14.9332C60.7528 16.1139 61.2743 16.7935 62.2012 16.7935C63.1247 16.7935 63.6508 16.1091 63.6508 14.9332H63.6508Z" fill="white"/>
<path d="M71.5223 17.6373H70.416L69.2992 13.6576H69.2149L68.1027 17.6373H67.007L65.5176 12.2338H66.5992L67.5672 16.357H67.6469L68.7578 12.2338H69.7809L70.8918 16.357H70.9762L71.9395 12.2338H73.0059L71.5223 17.6373Z" fill="white"/>
<path d="M74.2588 12.2338H75.2854V13.0922H75.365C75.5002 12.7839 75.7282 12.5254 76.0173 12.3528C76.3063 12.1803 76.642 12.1022 76.9775 12.1295C77.2405 12.1097 77.5045 12.1493 77.75 12.2455C77.9955 12.3416 78.2162 12.4917 78.3959 12.6847C78.5755 12.8777 78.7094 13.1087 78.7876 13.3605C78.8659 13.6122 78.8864 13.8784 78.8479 14.1392V17.6372H77.7815V14.407C77.7815 13.5387 77.4041 13.1068 76.6154 13.1068C76.4369 13.0985 76.2587 13.1289 76.0931 13.1959C75.9274 13.2629 75.7782 13.3649 75.6556 13.495C75.5331 13.625 75.4401 13.78 75.3831 13.9494C75.326 14.1188 75.3063 14.2984 75.3252 14.4761V17.6373H74.2588L74.2588 12.2338Z" fill="white"/>
<path d="M80.5469 10.1244H81.6133V17.6373H80.5469V10.1244Z" fill="white"/>
<path d="M83.0955 14.9331C83.0616 14.578 83.1022 14.2197 83.2149 13.8812C83.3275 13.5427 83.5096 13.2315 83.7496 12.9675C83.9895 12.7035 84.282 12.4926 84.6083 12.3483C84.9345 12.204 85.2873 12.1294 85.6441 12.1294C86.0008 12.1294 86.3536 12.204 86.6799 12.3483C87.0061 12.4926 87.2986 12.7035 87.5385 12.9675C87.7785 13.2315 87.9606 13.5427 88.0732 13.8812C88.1859 14.2197 88.2265 14.578 88.1926 14.9331C88.2272 15.2886 88.187 15.6474 88.0746 15.9864C87.9623 16.3255 87.7803 16.6372 87.5402 16.9017C87.3002 17.1662 87.0075 17.3776 86.681 17.5222C86.3544 17.6668 86.0012 17.7416 85.6441 17.7416C85.2869 17.7416 84.9337 17.6668 84.6071 17.5222C84.2806 17.3776 83.9879 17.1662 83.7479 16.9017C83.5078 16.6372 83.3258 16.3255 83.2135 15.9864C83.1011 15.6474 83.0609 15.2886 83.0955 14.9331ZM87.0951 14.9331C87.0951 13.7619 86.5689 13.0769 85.6455 13.0769C84.7186 13.0769 84.1971 13.7619 84.1971 14.9332C84.1971 16.1138 84.7186 16.7935 85.6455 16.7935C86.569 16.7935 87.0951 16.1091 87.0951 14.9331H87.0951Z" fill="white"/>
<path d="M89.3154 16.1092C89.3154 15.1365 90.0397 14.5758 91.3252 14.4961L92.7889 14.4117V13.9453C92.7889 13.3746 92.4115 13.0524 91.6826 13.0524C91.0873 13.0524 90.6748 13.2709 90.5564 13.653H89.524C89.633 12.7248 90.5061 12.1295 91.7318 12.1295C93.0865 12.1295 93.8506 12.8039 93.8506 13.9453V17.6373H92.824V16.878H92.7396C92.5684 17.1503 92.3279 17.3724 92.0428 17.5215C91.7576 17.6705 91.438 17.7412 91.1166 17.7264C90.8898 17.7499 90.6605 17.7257 90.4436 17.6553C90.2267 17.5849 90.0269 17.4698 89.8572 17.3174C89.6875 17.165 89.5516 16.9788 89.4583 16.7707C89.365 16.5626 89.3163 16.3373 89.3154 16.1092ZM92.7889 15.6475V15.1957L91.4693 15.2801C90.7252 15.3299 90.3877 15.583 90.3877 16.0594C90.3877 16.5457 90.8096 16.8287 91.3897 16.8287C91.5597 16.8459 91.7314 16.8288 91.8946 16.7783C92.0578 16.7277 92.2091 16.6449 92.3397 16.5347C92.4702 16.4245 92.5773 16.2892 92.6544 16.1367C92.7316 15.9843 92.7773 15.8179 92.7889 15.6475Z" fill="white"/>
<path d="M95.252 14.9332C95.252 13.2258 96.1297 12.1441 97.4949 12.1441C97.8326 12.1286 98.1678 12.2095 98.4612 12.3773C98.7546 12.5452 98.9942 12.7931 99.1519 13.0921H99.2316V10.1244H100.298V17.6373H99.2762V16.7836H99.1918C99.0219 17.0806 98.7739 17.3254 98.4748 17.4916C98.1757 17.6577 97.8369 17.7389 97.4949 17.7263C96.1203 17.7264 95.252 16.6447 95.252 14.9332ZM96.3536 14.9332C96.3536 16.0793 96.8938 16.7689 97.7973 16.7689C98.6961 16.7689 99.2516 16.0693 99.2516 14.9379C99.2516 13.8117 98.6903 13.1021 97.7973 13.1021C96.8996 13.1021 96.3535 13.7965 96.3535 14.9332H96.3536Z" fill="white"/>
<path d="M104.71 14.9332C104.676 14.5781 104.717 14.2198 104.83 13.8813C104.942 13.5428 105.124 13.2316 105.364 12.9676C105.604 12.7037 105.897 12.4927 106.223 12.3484C106.549 12.2041 106.902 12.1295 107.259 12.1295C107.615 12.1295 107.968 12.2041 108.294 12.3484C108.62 12.4927 108.913 12.7037 109.153 12.9676C109.393 13.2316 109.575 13.5428 109.688 13.8813C109.8 14.2198 109.841 14.5781 109.807 14.9332C109.841 15.2886 109.801 15.6474 109.689 15.9864C109.577 16.3255 109.395 16.6373 109.155 16.9018C108.915 17.1663 108.622 17.3776 108.295 17.5223C107.969 17.6669 107.616 17.7416 107.259 17.7416C106.901 17.7416 106.548 17.6669 106.222 17.5223C105.895 17.3776 105.602 17.1663 105.362 16.9018C105.122 16.6373 104.94 16.3255 104.828 15.9864C104.716 15.6474 104.676 15.2886 104.71 14.9332ZM108.71 14.9332C108.71 13.7619 108.184 13.0769 107.26 13.0769C106.333 13.0769 105.812 13.7619 105.812 14.9332C105.812 16.1139 106.333 16.7935 107.26 16.7935C108.184 16.7935 108.71 16.1091 108.71 14.9332Z" fill="white"/>
<path d="M111.238 12.2338H112.264V13.0922H112.344C112.479 12.7839 112.707 12.5254 112.996 12.3528C113.285 12.1803 113.621 12.1022 113.957 12.1295C114.219 12.1097 114.483 12.1493 114.729 12.2455C114.975 12.3416 115.195 12.4917 115.375 12.6847C115.554 12.8777 115.688 13.1087 115.767 13.3605C115.845 13.6122 115.865 13.8784 115.827 14.1392V17.6372H114.76V14.407C114.76 13.5387 114.383 13.1068 113.594 13.1068C113.416 13.0985 113.238 13.1289 113.072 13.1959C112.906 13.2629 112.757 13.3649 112.635 13.495C112.512 13.625 112.419 13.78 112.362 13.9494C112.305 14.1188 112.285 14.2984 112.304 14.4761V17.6373H111.238V12.2338Z" fill="white"/>
<path d="M121.853 10.8884V12.2583H123.023V13.1566H121.853V15.9351C121.853 16.5011 122.086 16.749 122.617 16.749C122.753 16.7485 122.888 16.7403 123.023 16.7244V17.6126C122.832 17.6469 122.638 17.6651 122.443 17.6671C121.257 17.6671 120.785 17.2499 120.785 16.2081V13.1565H119.927V12.2583H120.785V10.8884H121.853Z" fill="white"/>
<path d="M124.48 10.1244H125.537V13.1021H125.621C125.763 12.7909 125.997 12.531 126.292 12.3578C126.587 12.1846 126.928 12.1065 127.269 12.1342C127.531 12.1199 127.792 12.1636 128.035 12.262C128.277 12.3605 128.495 12.5113 128.673 12.7037C128.851 12.8961 128.984 13.1254 129.063 13.3751C129.142 13.6249 129.165 13.889 129.13 14.1486V17.6373H128.062V14.4117C128.062 13.5486 127.66 13.1115 126.907 13.1115C126.724 13.0965 126.539 13.1217 126.367 13.1853C126.194 13.249 126.038 13.3496 125.908 13.4801C125.779 13.6105 125.679 13.7678 125.617 13.9407C125.554 14.1137 125.53 14.2982 125.546 14.4814V17.6373H124.48L124.48 10.1244Z" fill="white"/>
<path d="M135.348 16.1783C135.203 16.6722 134.889 17.0993 134.461 17.3851C134.033 17.6709 133.518 17.7971 133.006 17.7416C132.65 17.751 132.297 17.6828 131.97 17.5418C131.643 17.4007 131.35 17.1902 131.113 16.9249C130.875 16.6595 130.698 16.3456 130.594 16.005C130.49 15.6645 130.462 15.3053 130.51 14.9525C130.463 14.5987 130.492 14.2388 130.596 13.8971C130.7 13.5555 130.876 13.2402 131.112 12.9725C131.348 12.7048 131.639 12.491 131.965 12.3456C132.291 12.2001 132.645 12.1264 133.002 12.1295C134.505 12.1295 135.412 13.1567 135.412 14.8535V15.2256H131.597V15.2854C131.58 15.4836 131.605 15.6832 131.67 15.8713C131.735 16.0594 131.838 16.2319 131.974 16.3776C132.109 16.5234 132.274 16.6392 132.457 16.7177C132.64 16.7962 132.837 16.8356 133.036 16.8334C133.291 16.864 133.549 16.818 133.778 16.7014C134.007 16.5847 134.196 16.4027 134.321 16.1783L135.348 16.1783ZM131.597 14.4369H134.326C134.339 14.2556 134.315 14.0734 134.254 13.9021C134.192 13.7309 134.096 13.5743 133.971 13.4425C133.846 13.3106 133.694 13.2065 133.526 13.1367C133.358 13.0668 133.178 13.0329 132.996 13.0371C132.811 13.0348 132.628 13.0694 132.458 13.139C132.287 13.2085 132.132 13.3115 132.001 13.442C131.871 13.5724 131.768 13.7277 131.698 13.8985C131.629 14.0694 131.594 14.2525 131.597 14.4369H131.597Z" fill="white"/>
</svg>
