<svg width="162" height="48" viewBox="0 0 162 48" fill="none" xmlns="http://www.w3.org/2000/svg">
<path d="M156 0H6.00046C2.68677 0 0.000488281 2.68628 0.000488281 5.99997V41.9998C0.000488281 45.3135 2.68677 47.9998 6.00046 47.9998H156C159.313 47.9998 162 45.3135 162 41.9998V5.99997C162 2.68628 159.313 0 156 0Z" fill="black"/>
<path d="M156 0.959999C157.336 0.961543 158.617 1.49307 159.562 2.43797C160.507 3.38287 161.038 4.66397 161.04 6.00021V42C161.038 43.3363 160.507 44.6174 159.562 45.5623C158.617 46.5072 157.336 47.0387 156 47.0403H6.00046C4.66421 47.0387 3.38313 46.5072 2.43827 45.5623C1.49342 44.6174 0.96196 43.3363 0.960483 42V6.00021C0.961938 4.66395 1.49339 3.38284 2.43825 2.43794C3.38311 1.49303 4.6642 0.961518 6.00046 0.959999H156ZM156 0.000244141H6.00046C4.4106 0.00489784 2.88719 0.63853 1.76298 1.76274C0.638774 2.88694 0.00514198 4.41035 0.000488281 6.00021L0.000488281 42C0.00514198 43.5899 0.638774 45.1133 1.76298 46.2375C2.88719 47.3617 4.4106 47.9954 6.00046 48H156C157.59 47.9954 159.113 47.3617 160.237 46.2375C161.361 45.1133 161.995 43.5899 162 42V6.00021C161.995 4.41035 161.361 2.88694 160.237 1.76274C159.113 0.63853 157.59 0.00489784 156 0.000244141Z" fill="#A6A6A6"/>
<path d="M56.9021 12.2919C56.9239 12.7322 56.8559 13.1724 56.7021 13.5856C56.5484 13.9988 56.3122 14.3764 56.0079 14.6954C55.6668 15.0491 55.2549 15.3268 54.7991 15.5104C54.3434 15.6939 53.854 15.7792 53.363 15.7606C52.8688 15.765 52.3788 15.6706 51.9216 15.483C51.4645 15.2953 51.0495 15.0181 50.701 14.6678C50.3525 14.3174 50.0776 13.9009 49.8924 13.4428C49.7072 12.9847 49.6154 12.4942 49.6224 12.0001C49.6154 11.5059 49.7073 11.0154 49.8925 10.5573C50.0777 10.0991 50.3526 9.68263 50.7011 9.33224C51.0496 8.98185 51.4646 8.70464 51.9217 8.51688C52.3788 8.32913 52.8688 8.23462 53.363 8.23891C53.871 8.23737 54.374 8.34009 54.8407 8.54071C55.2743 8.71644 55.6601 8.99208 55.9669 9.34518L55.3341 9.97854C55.0929 9.69468 54.7897 9.47003 54.448 9.32191C54.1062 9.17379 53.735 9.10617 53.363 9.12427C52.9885 9.12233 52.6174 9.19599 52.2721 9.34084C51.9267 9.4857 51.6141 9.69876 51.3531 9.96727C51.092 10.2358 50.8878 10.5542 50.7528 10.9035C50.6177 11.2528 50.5545 11.6258 50.567 12.0001C50.558 12.5607 50.7158 13.1113 51.0202 13.5822C51.3247 14.0531 51.7621 14.4229 52.277 14.6448C52.7919 14.8668 53.3611 14.9308 53.9125 14.8288C54.4638 14.7268 54.9725 14.4634 55.3739 14.072C55.7434 13.6738 55.9575 13.1563 55.9774 12.6135H53.363V11.7487H56.8517C56.8847 11.9279 56.9015 12.1097 56.9021 12.2919Z" fill="white" stroke="white" stroke-width="0.2" stroke-miterlimit="10"/>
<path d="M62.4334 9.28478H59.1546V11.5675H62.1112V12.4325H59.1546V14.7152H62.4334V15.6H58.23V8.40002H62.4334V9.28478Z" fill="white" stroke="white" stroke-width="0.2" stroke-miterlimit="10"/>
<path d="M66.3347 15.6H65.4089V9.28478H63.3979V8.40002H68.3456V9.28478H66.3347V15.6Z" fill="white" stroke="white" stroke-width="0.2" stroke-miterlimit="10"/>
<path d="M71.9258 15.6V8.40002H72.8504V15.6H71.9258Z" fill="white" stroke="white" stroke-width="0.2" stroke-miterlimit="10"/>
<path d="M76.9542 15.6H76.0284V9.28478H74.0176V8.40002H78.9651V9.28478H76.9542V15.6Z" fill="white" stroke="white" stroke-width="0.2" stroke-miterlimit="10"/>
<path d="M88.331 14.6695C87.6302 15.3682 86.681 15.7606 85.6914 15.7606C84.7018 15.7606 83.7525 15.3682 83.0517 14.6695C82.705 14.3184 82.4325 13.9011 82.2503 13.4425C82.0681 12.9839 81.98 12.4934 81.9912 12C81.98 11.5067 82.0681 11.0161 82.2503 10.5576C82.4325 10.099 82.705 9.68168 83.0517 9.33053C83.3981 8.98405 83.8094 8.70929 84.2621 8.52197C84.7149 8.33465 85.2001 8.23846 85.69 8.23889C86.1799 8.23933 86.665 8.33638 87.1173 8.5245C87.5697 8.71262 87.9805 8.98811 88.3263 9.33521C88.6732 9.68543 88.9463 10.1018 89.1293 10.5595C89.3123 11.0173 89.4015 11.5072 89.3915 12C89.4024 12.4933 89.3142 12.9838 89.132 13.4423C88.9498 13.9009 88.6774 14.3182 88.331 14.6695ZM83.7349 14.0667C84.2539 14.5848 84.9574 14.8758 85.6908 14.8758C86.4242 14.8758 87.1276 14.5848 87.6466 14.0667C87.9128 13.7942 88.1209 13.4705 88.2585 13.1153C88.3961 12.7601 88.4602 12.3807 88.447 12C88.4602 11.6193 88.3961 11.2399 88.2585 10.8847C88.1209 10.5295 87.9128 10.2059 87.6466 9.9334C87.1276 9.41525 86.4242 9.12423 85.6908 9.12423C84.9574 9.12423 84.2539 9.41525 83.7349 9.9334C83.4691 10.2061 83.2613 10.5298 83.1239 10.885C82.9866 11.2402 82.9225 11.6195 82.9357 12C82.9225 12.3806 82.9866 12.7599 83.1239 13.1151C83.2613 13.4703 83.4691 13.794 83.7349 14.0667Z" fill="white" stroke="white" stroke-width="0.2" stroke-miterlimit="10"/>
<path d="M90.6899 15.6V8.40002H91.8161L95.3153 14.001H95.3552L95.3153 12.6134V8.40002H96.2411V15.6H95.2755L91.6145 9.7277H91.5747L91.6145 11.1153V15.6H90.6899Z" fill="white" stroke="white" stroke-width="0.2" stroke-miterlimit="10"/>
<path d="M81.7631 26.1019C80.7545 26.1057 79.7696 26.4083 78.9328 26.9714C78.0961 27.5345 77.4449 28.333 77.0616 29.2659C76.6783 30.1988 76.58 31.2244 76.7791 32.2132C76.9782 33.202 77.4658 34.1096 78.1804 34.8214C78.8949 35.5332 79.8044 36.0174 80.7939 36.2128C81.7834 36.4081 82.8086 36.3059 83.7401 35.919C84.6715 35.5322 85.4675 34.878 86.0274 34.0391C86.5874 33.2002 86.8862 32.2142 86.8862 31.2056C86.8961 30.531 86.7702 29.8612 86.516 29.2363C86.2618 28.6113 85.8845 28.0439 85.4065 27.5677C84.9286 27.0915 84.3597 26.7164 83.7338 26.4646C83.1078 26.2127 82.4376 26.0894 81.7631 26.1019ZM81.7631 34.2988C81.1419 34.3431 80.5218 34.1993 79.9835 33.8863C79.4452 33.5732 79.0136 33.1053 78.745 32.5435C78.4763 31.9818 78.383 31.3521 78.4772 30.7365C78.5714 30.121 78.8487 29.548 79.2731 29.0923C79.6975 28.6366 80.2493 28.3192 80.8566 28.1814C81.4638 28.0437 82.0985 28.092 82.678 28.32C83.2575 28.548 83.7549 28.9452 84.1055 29.4599C84.456 29.9746 84.6435 30.5828 84.6435 31.2056C84.6624 31.599 84.6023 31.9922 84.4669 32.362C84.3315 32.7319 84.1235 33.0709 83.8551 33.3591C83.5867 33.6474 83.2633 33.879 82.904 34.0404C82.5448 34.2017 82.1568 34.2896 81.7631 34.2988ZM70.587 26.1019C69.5784 26.1057 68.5936 26.4082 67.7568 26.9714C66.92 27.5345 66.2688 28.3329 65.8855 29.2658C65.5021 30.1988 65.4038 31.2244 65.6029 32.2131C65.802 33.2019 66.2896 34.1095 67.0042 34.8214C67.7187 35.5332 68.6282 36.0174 69.6177 36.2128C70.6072 36.4081 71.6324 36.3059 72.5639 35.9191C73.4954 35.5322 74.2913 34.878 74.8513 34.0391C75.4112 33.2002 75.7101 32.2142 75.7101 31.2056C75.72 30.531 75.5941 29.8613 75.3399 29.2363C75.0857 28.6113 74.7084 28.0439 74.2304 27.5677C73.7525 27.0916 73.1836 26.7164 72.5577 26.4646C71.9318 26.2128 71.2616 26.0894 70.587 26.1019ZM70.587 34.2988C69.9659 34.3431 69.3458 34.1993 68.8075 33.8863C68.2692 33.5732 67.8376 33.1053 67.569 32.5435C67.3003 31.9818 67.207 31.3521 67.3012 30.7365C67.3954 30.121 67.6727 29.548 68.0971 29.0923C68.5215 28.6366 69.0732 28.3192 69.6805 28.1814C70.2878 28.0437 70.9225 28.092 71.502 28.32C72.0815 28.548 72.5789 28.9452 72.9294 29.4599C73.28 29.9746 73.4675 30.5828 73.4675 31.2056C73.4864 31.599 73.4263 31.9922 73.2909 32.362C73.1555 32.7319 72.9475 33.0709 72.6791 33.3591C72.4107 33.6474 72.0873 33.879 71.728 34.0404C71.3687 34.2018 70.9808 34.2896 70.587 34.2988ZM57.2926 27.6679V29.833H62.4738C62.399 30.8486 61.9834 31.8091 61.2944 32.5589C60.7752 33.0882 60.1508 33.5027 59.4615 33.7757C58.7722 34.0487 58.0333 34.1742 57.2926 34.1441C55.7781 34.1236 54.3327 33.5076 53.269 32.4294C52.2053 31.3513 51.609 29.8976 51.609 28.3831C51.609 26.8685 52.2053 25.4149 53.269 24.3367C54.3327 23.2585 55.7781 22.6425 57.2926 22.622C58.7472 22.603 60.1506 23.1588 61.1978 24.1686L62.725 22.6413C62.0105 21.9339 61.162 21.3763 60.2291 21.0012C59.2963 20.6261 58.2979 20.441 57.2926 20.4567C56.2419 20.4414 55.1988 20.6352 54.2237 21.0266C53.2486 21.4181 52.3611 21.9995 51.6128 22.7371C50.8644 23.4746 50.2701 24.3536 49.8645 25.3228C49.4589 26.2921 49.25 27.3323 49.25 28.3831C49.25 29.4338 49.4589 30.474 49.8645 31.4433C50.2701 32.4126 50.8644 33.2915 51.6128 34.0291C52.3611 34.7666 53.2486 35.348 54.2237 35.7395C55.1988 36.131 56.2419 36.3247 57.2926 36.3094C58.3191 36.352 59.343 36.1757 60.2962 35.7924C61.2495 35.4091 62.1103 34.8275 62.8216 34.0862C64.0845 32.7077 64.7577 30.8896 64.697 29.0211C64.702 28.5673 64.663 28.1141 64.5808 27.6679H57.2926ZM111.662 29.3497C111.356 28.4252 110.772 27.6176 109.99 27.0366C109.208 26.4555 108.267 26.1292 107.293 26.1019C106.637 26.1059 105.989 26.2429 105.388 26.5046C104.787 26.7662 104.245 27.1471 103.795 27.6241C103.345 28.1012 102.996 28.6645 102.77 29.2801C102.544 29.8957 102.445 30.5507 102.479 31.2056C102.465 31.8766 102.585 32.5437 102.834 33.167C103.083 33.7904 103.455 34.3572 103.928 34.8336C104.4 35.31 104.964 35.6862 105.586 35.9398C106.207 36.1933 106.873 36.319 107.544 36.3094C108.385 36.314 109.214 36.1098 109.956 35.715C110.699 35.3202 111.331 34.7472 111.797 34.0475L110.058 32.8876C109.797 33.3205 109.428 33.6782 108.988 33.9256C108.547 34.173 108.05 34.3016 107.544 34.2988C107.025 34.3187 106.511 34.1819 106.069 33.9061C105.628 33.6303 105.28 33.2283 105.07 32.7522L111.894 29.9297L111.662 29.3497ZM104.703 31.051C104.679 30.6795 104.729 30.307 104.851 29.9552C104.972 29.6034 105.163 29.2794 105.411 29.0022C105.66 28.725 105.961 28.5001 106.297 28.3407C106.634 28.1813 106.998 28.0905 107.37 28.0738C107.758 28.0483 108.144 28.1374 108.481 28.3299C108.818 28.5225 109.09 28.8099 109.265 29.1565L104.703 31.051ZM99.1541 36H101.397V20.9982H99.1541V36ZM95.4809 27.2425H95.4036C95.0627 26.872 94.6466 26.5787 94.1832 26.382C93.7198 26.1853 93.2197 26.0898 92.7164 26.1019C91.4004 26.1579 90.1568 26.7201 89.2454 27.6711C88.334 28.6221 87.8252 29.8884 87.8252 31.2056C87.8252 32.5228 88.334 33.7892 89.2454 34.7402C90.1568 35.6912 91.4004 36.2534 92.7164 36.3094C93.2217 36.3228 93.7238 36.226 94.1879 36.0257C94.652 35.8254 95.0668 35.5264 95.4036 35.1495H95.4809V35.8841C95.4809 37.8367 94.437 38.8806 92.755 38.8806C92.1945 38.8672 91.6506 38.6872 91.1927 38.3636C90.7348 38.0399 90.3836 37.5873 90.1839 37.0633L88.2313 37.8754C88.5993 38.7714 89.2265 39.5371 90.0324 40.0744C90.8384 40.6117 91.7864 40.8961 92.755 40.8912C95.3843 40.8912 97.6076 39.3446 97.6076 35.5747V26.4111H95.4809V27.2425ZM92.9098 34.2988C92.1347 34.2331 91.4125 33.8787 90.8862 33.3059C90.3599 32.7331 90.0678 31.9835 90.0678 31.2056C90.0678 30.4277 90.3599 29.6782 90.8862 29.1054C91.4125 28.5325 92.1347 28.1782 92.9098 28.1125C93.2954 28.1313 93.6733 28.2276 94.021 28.3956C94.3686 28.5635 94.6788 28.7998 94.9332 29.0902C95.1875 29.3807 95.3808 29.7194 95.5015 30.0861C95.6222 30.4529 95.6678 30.8401 95.6356 31.2249C95.6658 31.6072 95.6185 31.9918 95.4966 32.3554C95.3747 32.7191 95.1808 33.0544 94.9263 33.3414C94.6718 33.6284 94.3621 33.8611 94.0156 34.0256C93.6691 34.1901 93.293 34.283 92.9098 34.2988ZM122.167 20.9984H116.801V36H119.04V30.3164H122.167C122.8 30.3511 123.434 30.2563 124.029 30.0379C124.625 29.8194 125.169 29.4819 125.63 29.0458C126.091 28.6098 126.458 28.0844 126.708 27.5018C126.959 26.9192 127.088 26.2916 127.088 25.6574C127.088 25.0231 126.959 24.3955 126.708 23.813C126.458 23.2304 126.091 22.705 125.63 22.269C125.169 21.8329 124.625 21.4954 124.029 21.2769C123.434 21.0585 122.8 20.9637 122.167 20.9984ZM122.225 28.2286H119.04V23.0863H122.225C122.567 23.0792 122.907 23.1405 123.225 23.2665C123.543 23.3925 123.833 23.5808 124.078 23.8202C124.322 24.0597 124.516 24.3455 124.649 24.661C124.781 24.9765 124.85 25.3152 124.85 25.6575C124.85 25.9997 124.781 26.3384 124.649 26.6539C124.516 26.9694 124.322 27.2552 124.078 27.4947C123.833 27.7341 123.543 27.9224 123.225 28.0484C122.907 28.1744 122.567 28.2357 122.225 28.2286ZM136.063 26.0743C135.245 26.0266 134.432 26.2185 133.722 26.6265C133.013 27.0344 132.438 27.6407 132.068 28.3709L134.055 29.2009C134.253 28.8384 134.551 28.5413 134.914 28.3459C135.278 28.1505 135.69 28.0653 136.101 28.1007C136.669 28.0452 137.236 28.2173 137.677 28.579C138.119 28.9408 138.399 29.4628 138.456 30.0307V30.1851C137.737 29.8031 136.935 29.6042 136.121 29.6061C133.978 29.6061 131.797 30.7834 131.797 32.9836C131.818 33.4473 131.932 33.9021 132.132 34.321C132.332 34.7398 132.614 35.1143 132.961 35.4221C133.309 35.7299 133.714 35.9648 134.154 36.1128C134.594 36.2609 135.059 36.319 135.522 36.2838C136.086 36.317 136.648 36.1984 137.151 35.9405C137.653 35.6825 138.077 35.2946 138.379 34.8171H138.456V35.9751H140.617V30.2237C140.617 27.5603 138.629 26.0743 136.063 26.0743ZM135.792 34.2959C135.059 34.2959 134.036 33.9293 134.036 33.0221C134.036 31.8642 135.31 31.4202 136.41 31.4202C137.125 31.4012 137.831 31.5745 138.456 31.9221C138.374 32.5728 138.059 33.1717 137.569 33.6081C137.079 34.0444 136.448 34.2888 135.792 34.2959ZM148.492 26.4024L145.925 32.9063H145.848L143.184 26.4024H140.772L144.767 35.4925L142.489 40.5491H144.825L150.981 26.4024H148.492ZM128.323 36H130.562V20.9984H128.323V36Z" fill="white"/>
<path d="M12.5226 9.04562C12.1291 9.5161 11.9304 10.1192 11.9673 10.7315V37.2707C11.9303 37.8829 12.129 38.4861 12.5226 38.9565L12.6114 39.0431L27.4781 24.1765V23.8257L12.6114 8.9585L12.5226 9.04562Z" fill="url(#paint0_linear_251_322)"/>
<path d="M32.4338 29.1341L27.4785 24.1765V23.8257L32.435 18.8693L32.5467 18.933L38.418 22.2691C40.0951 23.2219 40.0951 24.7809 38.418 25.7343L32.5467 29.0704L32.4338 29.1341Z" fill="url(#paint1_linear_251_322)"/>
<path d="M32.5466 29.0699L27.4785 24.0012L12.5229 38.9566C12.8647 39.258 13.3011 39.4304 13.7565 39.4438C14.2119 39.4573 14.6577 39.311 15.0167 39.0303L32.5466 29.0699Z" fill="url(#paint2_linear_251_322)"/>
<path d="M32.5466 18.9324L15.0167 8.97199C14.6577 8.6913 14.2119 8.54501 13.7565 8.55847C13.3011 8.57193 12.8647 8.74428 12.5229 9.04567L27.4785 24.0012L32.5466 18.9324Z" fill="url(#paint3_linear_251_322)"/>
<path opacity="0.2" d="M32.4349 28.9583L15.0167 38.855C14.6716 39.1177 14.2504 39.261 13.8166 39.2633C13.3829 39.2656 12.9602 39.1268 12.6123 38.8678L12.5229 38.9572L12.6117 39.0437L12.6123 39.0431C12.9602 39.3023 13.3829 39.4412 13.8167 39.4389C14.2504 39.4366 14.6716 39.2931 15.0167 39.0303L32.5466 29.0699L32.4349 28.9583Z" fill="black"/>
<path opacity="0.12" d="M12.5226 38.7819C12.1291 38.3114 11.9304 37.7083 11.9672 37.0961V37.2714C11.9304 37.8836 12.1291 38.4868 12.5226 38.9573L12.612 38.8679L12.5226 38.7819Z" fill="black"/>
<path opacity="0.12" d="M38.4176 25.5585L32.4346 28.9583L32.5463 29.0699L38.4176 25.7338C38.763 25.5839 39.0619 25.3442 39.2831 25.0395C39.5044 24.7349 39.6399 24.3765 39.6756 24.0017C39.6013 24.3411 39.449 24.6586 39.2306 24.9288C39.0123 25.199 38.7339 25.4146 38.4176 25.5585Z" fill="black"/>
<path opacity="0.25" d="M15.0164 9.14786L38.4177 22.4438C38.7341 22.5876 39.0125 22.8033 39.2309 23.0736C39.4493 23.344 39.6016 23.6616 39.6756 24.0011C39.6402 23.6262 39.5048 23.2676 39.2835 22.9629C39.0622 22.6581 38.7632 22.4183 38.4177 22.2685L15.0164 8.97254C13.3392 8.01963 11.9673 8.81114 11.9673 10.7321V10.9074C11.9673 8.98658 13.3392 8.19507 15.0164 9.14786Z" fill="white"/>
<defs>
<linearGradient id="paint0_linear_251_322" x1="26.1597" y1="10.4517" x2="6.02096" y2="30.5905" gradientUnits="userSpaceOnUse">
<stop stop-color="#00A0FF"/>
<stop offset="0.00657" stop-color="#00A1FF"/>
<stop offset="0.2601" stop-color="#00BEFF"/>
<stop offset="0.5122" stop-color="#00D2FF"/>
<stop offset="0.7604" stop-color="#00DFFF"/>
<stop offset="1" stop-color="#00E3FF"/>
</linearGradient>
<linearGradient id="paint1_linear_251_322" x1="40.6016" y1="24.0017" x2="11.5655" y2="24.0017" gradientUnits="userSpaceOnUse">
<stop stop-color="#FFE000"/>
<stop offset="0.4087" stop-color="#FFBD00"/>
<stop offset="0.7754" stop-color="#FFA500"/>
<stop offset="1" stop-color="#FF9C00"/>
</linearGradient>
<linearGradient id="paint2_linear_251_322" x1="29.7927" y1="26.7553" x2="2.48292" y2="54.0651" gradientUnits="userSpaceOnUse">
<stop stop-color="#FF3A44"/>
<stop offset="1" stop-color="#C31162"/>
</linearGradient>
<linearGradient id="paint3_linear_251_322" x1="8.75728" y1="0.211526" x2="20.9522" y2="12.4065" gradientUnits="userSpaceOnUse">
<stop stop-color="#32A071"/>
<stop offset="0.0685" stop-color="#2DA771"/>
<stop offset="0.4762" stop-color="#15CF74"/>
<stop offset="0.8009" stop-color="#06E775"/>
<stop offset="1" stop-color="#00F076"/>
</linearGradient>
</defs>
</svg>
